<svg style="position: absolute; width: 0; height: 0; overflow: hidden;" version="1.1" xmlns="http://www.w3.org/2000/svg" xmlns:xlink="http://www.w3.org/1999/xlink">
<defs>
<symbol id="icon-website" viewBox="0 0 64 64">
<title>website</title>
<path class="path1" d="M32 0c-17.673 0-32 14.327-32 32s14.327 32 32 32 32-14.327 32-32-14.327-32-32-32zM32 60c-3.935 0-7.68-0.813-11.077-2.278l14.572-16.393c0.325-0.366 0.505-0.839 0.505-1.329v-6c0-1.105-0.895-2-2-2-7.062 0-14.513-7.341-14.586-7.414-0.375-0.375-0.884-0.586-1.414-0.586h-8c-1.104 0-2 0.895-2 2v12c0 0.758 0.428 1.45 1.106 1.789l6.894 3.447v11.743c-7.253-5.060-12-13.465-12-22.979 0-4.295 0.968-8.363 2.696-12h7.304c0.53 0 1.039-0.211 1.414-0.586l8-8c0.375-0.375 0.586-0.884 0.586-1.414v-4.838c2.535-0.755 5.22-1.162 8-1.162 4.4 0 8.563 1.016 12.268 2.825-0.259 0.219-0.511 0.448-0.753 0.69-2.267 2.267-3.515 5.28-3.515 8.485s1.248 6.219 3.515 8.485c2.277 2.277 5.326 3.517 8.477 3.516 0.198 0 0.396-0.005 0.595-0.015 0.863 3.238 2.422 11.666-0.525 23.271-0.028 0.109-0.044 0.218-0.053 0.327-5.083 5.193-12.169 8.416-20.009 8.416z"></path>
</symbol>
<symbol id="icon-facebook" viewBox="0 0 64 64">
<title>facebook</title>
<path class="path1" d="M58 0h-52c-3.3 0-6 2.7-6 6v52c0 3.3 2.7 6 6 6h26v-28h-8v-8h8v-4c0-6.613 5.388-12 12-12h8v8h-8c-2.2 0-4 1.8-4 4v4h12l-2 8h-10v28h18c3.3 0 6-2.7 6-6v-52c0-3.3-2.7-6-6-6z"></path>
</symbol>
<symbol id="icon-twitter" viewBox="0 0 64 64">
<title>twitter</title>
<path class="path1" d="M64 14.15c-2.35 1.050-4.888 1.75-7.538 2.062 2.712-1.625 4.788-4.2 5.775-7.262-2.538 1.5-5.35 2.6-8.337 3.188-2.4-2.55-5.813-4.138-9.587-4.138-7.25 0-13.125 5.875-13.125 13.125 0 1.025 0.113 2.025 0.337 2.988-10.913-0.55-20.587-5.775-27.063-13.725-1.125 1.938-1.775 4.2-1.775 6.6 0 4.55 2.312 8.575 5.838 10.925-2.15-0.063-4.175-0.663-5.95-1.637 0 0.050 0 0.113 0 0.163 0 6.363 4.525 11.675 10.537 12.875-1.1 0.3-2.262 0.462-3.463 0.462-0.85 0-1.662-0.087-2.475-0.237 1.675 5.212 6.525 9.012 12.262 9.125-4.5 3.525-10.15 5.625-16.313 5.625-1.063 0-2.1-0.063-3.138-0.188 5.825 3.737 12.725 5.9 20.137 5.9 24.15 0 37.362-20.013 37.362-37.362 0-0.575-0.013-1.137-0.038-1.7 2.563-1.837 4.788-4.15 6.55-6.787z"></path>
</symbol>
<symbol id="icon-youtube" viewBox="0 0 64 64">
<title>youtube</title>
<path class="path1" d="M63.362 19.2c0 0-0.625-4.412-2.55-6.35-2.438-2.55-5.163-2.563-6.413-2.713-8.95-0.65-22.387-0.65-22.387-0.65h-0.025c0 0-13.438 0-22.387 0.65-1.25 0.15-3.975 0.162-6.412 2.713-1.925 1.938-2.538 6.35-2.538 6.35s-0.637 5.175-0.637 10.363v4.85c0 5.175 0.637 10.363 0.637 10.363s0.625 4.413 2.538 6.35c2.438 2.55 5.638 2.462 7.063 2.737 5.125 0.487 21.762 0.638 21.762 0.638s13.45-0.025 22.4-0.663c1.25-0.15 3.975-0.163 6.413-2.712 1.925-1.938 2.55-6.35 2.55-6.35s0.638-5.175 0.638-10.362v-4.85c-0.013-5.175-0.65-10.363-0.65-10.363zM25.387 40.3v-17.988l17.287 9.025-17.288 8.962z"></path>
</symbol>
</defs>
</svg>
